# xmcd CD database file
#
# Track frame offsets:
#	150
#	28624
#	51479
#	71661
#	98419
#	119183
#	141531
#	163020
#	192950
#	207005
#
# Disc length: 2928 seconds
#
# Revision: 0
# Processed by: cddbd v1.5.1PL0 Copyright (c) Steve Scherf et al.
# Submitted via: CDex 1.51
#
DISCID=970b6e0a
DTITLE=George Hoar and TRIKUS - TRIKUS
DYEAR=2004
DGENRE=Jazz
TTITLE0=Front St.
TTITLE1=Free Bass
TTITLE2=Wreckless Pursuit
TTITLE3=Homeward
TTITLE4=Cajun Dijon
TTITLE5=FX
TTITLE6=Dark Stout
TTITLE7=Minor Deegan
TTITLE8=Palette One
TTITLE9=Wolf Waltz
EXTD=YEAR: 2004
EXTT0=
EXTT1=
EXTT2=
EXTT3=
EXTT4=
EXTT5=
EXTT6=
EXTT7=
EXTT8=
EXTT9=
PLAYORDER=
